<svg width="309" height="589" viewBox="0 0 309 589" fill="none" xmlns="http://www.w3.org/2000/svg">
<path fill-rule="evenodd" clip-rule="evenodd" d="M136.249 7.86709C132.215 11.8614 129.986 16.482 129.188 18.9716C128.555 20.9461 128.354 24.3795 128.368 27.9028C128.381 31.4141 128.607 34.9746 128.811 37.179C128.823 37.306 128.74 37.4227 128.617 37.4538C128.493 37.485 128.365 37.4214 128.315 37.304C128.174 36.9701 127.892 36.4794 127.519 36.1023C127.142 35.722 126.717 35.5 126.271 35.5812C125.761 35.6738 125.272 35.88 124.867 36.251C124.465 36.6208 124.131 37.1683 123.956 37.97C123.85 38.4536 123.801 39.0301 123.83 39.7152C123.894 41.221 124.119 43.0349 124.464 44.7043C124.811 46.3809 125.273 47.8828 125.801 48.7828C126.083 49.2643 126.367 49.866 126.654 50.4826C126.678 50.5345 126.702 50.5865 126.727 50.6386C126.993 51.2104 127.263 51.7913 127.544 52.3179C127.853 52.8948 128.165 53.387 128.485 53.7207C128.807 54.0569 129.094 54.19 129.363 54.1565C130.097 54.0647 130.493 53.84 130.727 53.613C130.945 53.4006 131.043 53.169 131.136 52.9493C131.145 52.9287 131.154 52.9082 131.162 52.8879C131.177 52.8529 131.197 52.8127 131.222 52.7766C131.238 52.7539 131.3 52.6675 131.417 52.647C131.575 52.6194 131.67 52.7257 131.7 52.7698C131.731 52.8157 131.747 52.8649 131.755 52.8949C131.789 53.0139 131.809 53.2222 131.828 53.4536C131.834 53.5236 131.84 53.5985 131.846 53.6778C131.884 54.1542 131.935 54.7894 132.044 55.4723C132.094 55.7814 132.143 56.1793 132.199 56.6282C132.218 56.7745 132.237 56.9261 132.257 57.0818C132.338 57.7195 132.435 58.4342 132.563 59.1557C132.823 60.6109 133.204 62.0489 133.814 62.9368C133.843 62.9792 133.859 63.0293 133.859 63.0808C133.888 66.2356 133.924 71.6371 133.915 75.2476C133.91 77.0357 133.894 78.4011 133.858 78.8269C133.819 79.2956 133.547 79.7712 133.151 80.2367C132.751 80.7073 132.2 81.1972 131.55 81.6958C130.25 82.6934 128.523 83.7519 126.743 84.7875C123.165 86.869 117.002 89.6575 109.681 92.1843C106.274 93.3601 103.868 93.7271 101.535 94.0829C101.348 94.1115 101.161 94.14 100.974 94.1688C98.4686 94.5555 95.9509 95.0045 92.2242 96.5145C91.8087 96.6828 91.4057 96.8451 91.0143 97.0026L90.7423 97.1121C87.487 98.4228 85.0576 99.4212 82.793 101.032C80.5327 102.639 78.424 104.866 75.8421 108.649C70.3265 116.73 69.8053 127.656 69.8053 133.348C69.8053 137.91 69.5894 142.246 69.4812 143.847C69.4784 143.889 69.4656 143.929 69.4438 143.965C68.497 145.514 67.0114 148.052 65.6339 150.629C64.2529 153.212 62.9922 155.811 62.483 157.492C62.0405 158.952 61.3337 160.956 60.5529 163.171C60.1886 164.204 59.8081 165.283 59.4309 166.373C58.2415 169.812 57.0825 173.372 56.5364 176.038C55.6782 180.228 54.7701 181.825 53.0921 184.775C52.6001 185.64 52.042 186.622 51.3995 187.819C51.1649 188.256 50.9268 188.696 50.6854 189.141C47.9994 194.098 44.8981 199.821 41.5216 211.964C39.6807 218.585 38.3883 225.078 37.2885 230.788C37.1928 231.285 37.0985 231.776 37.0055 232.26C36.0306 237.338 35.1878 241.728 34.2084 244.904C33.1387 248.372 31.309 253.57 29.6748 257.995C28.8575 260.208 28.0885 262.23 27.487 263.748C27.1863 264.506 26.9269 265.141 26.724 265.611C26.6226 265.845 26.5345 266.041 26.4618 266.192C26.3926 266.335 26.3283 266.457 26.2747 266.528C26.1781 266.657 26.0365 266.777 25.8784 266.888C25.7175 267.002 25.5256 267.115 25.3161 267.225C24.8971 267.447 24.3921 267.667 23.8908 267.867C22.8875 268.266 21.8773 268.592 21.5482 268.691C21.0469 268.841 19.5954 269.434 18.9212 269.717L18.9207 269.717C16.6099 270.68 14.3624 272.029 13.472 272.665C13.0831 272.943 12.7305 273.297 12.3574 273.671C12.3168 273.712 12.276 273.753 12.2348 273.794C11.8232 274.206 11.3825 274.632 10.8667 274.941C10.5207 275.149 10.0517 275.398 9.55663 275.66C9.34779 275.771 9.1343 275.885 8.92345 275.998C8.20108 276.388 7.50882 276.782 7.07608 277.123C6.17939 277.827 5.03396 278.911 4.4705 279.662C4.21795 279.999 4.12718 280.25 4.03632 280.501L4.02143 280.542C3.91937 280.822 3.80644 281.106 3.47595 281.437C3.19396 281.719 2.79989 282.027 2.39575 282.342L2.29583 282.42C1.84976 282.769 1.39277 283.132 1.01732 283.507C0.696222 283.828 0.451432 284.521 0.5334 285.236C0.612904 285.93 0.996683 286.616 1.89826 286.965C2.84401 287.331 3.9897 287.367 5.09808 287.162C6.20597 286.958 7.25092 286.519 7.99023 285.964C8.74358 285.399 9.19778 284.883 9.57144 284.429C9.61735 284.374 9.66247 284.318 9.70719 284.264C10.0212 283.879 10.315 283.518 10.7156 283.241C11.1575 282.935 11.8721 282.571 12.5861 282.284C13.2912 282 14.0436 281.772 14.5509 281.772C14.6388 281.772 14.7207 281.816 14.7684 281.89C14.816 281.964 14.8229 282.057 14.7866 282.137C14.1613 283.517 12.7331 286.774 12.0123 288.782C11.2152 291.002 9.96046 296.062 9.2775 298.815C9.18924 299.171 9.11053 299.489 9.0436 299.756C8.46143 302.085 7.42776 306.414 6.91163 309.124C6.39228 311.85 5.75014 315.451 5.68656 316.723C5.67809 316.892 5.65828 317.103 5.63568 317.344C5.56632 318.084 5.47064 319.104 5.59572 320.057C5.67782 320.682 5.85248 321.241 6.16887 321.646C6.47641 322.04 6.93379 322.31 7.63868 322.339C9.04663 322.398 9.97681 321.467 10.5891 320.384C11.1537 319.385 11.4114 318.316 11.4994 317.951C11.5066 317.922 11.5127 317.896 11.5177 317.876C11.5572 317.718 11.653 317.187 11.7758 316.497L11.8095 316.308C11.9237 315.667 12.0554 314.927 12.1805 314.268C12.3236 313.513 12.4624 312.84 12.5584 312.552C12.6338 312.326 12.8177 311.709 13.0698 310.862C13.4488 309.59 13.9818 307.801 14.532 306.046C14.8722 304.96 15.2181 303.891 15.5356 302.973C16.1179 301.291 16.5231 300.14 16.8154 299.353C17.1054 298.571 17.2902 298.131 17.4318 297.883C17.5252 297.72 17.6678 297.6 17.8545 297.586C18.0266 297.572 18.1697 297.654 18.2637 297.736C18.3602 297.82 18.4375 297.932 18.4809 298.047C18.519 298.148 18.5569 298.324 18.4542 298.478C18.4023 298.556 18.1993 298.928 17.9662 299.458C17.7353 299.984 17.4829 300.648 17.326 301.306C17.2135 301.779 16.9077 302.908 16.5379 304.274C16.3722 304.886 16.1937 305.546 16.014 306.215C15.4308 308.385 14.835 310.657 14.6106 311.779C14.3863 312.9 14.2902 313.716 14.2016 314.522L14.1827 314.694C14.1006 315.445 14.0171 316.208 13.835 317.209C13.7278 317.799 13.574 318.493 13.4093 319.235C13.2767 319.834 13.1371 320.464 13.0091 321.096C12.7186 322.532 12.4805 324.016 12.4805 325.315C12.4805 326.632 12.6266 327.683 12.9722 328.397C13.1429 328.749 13.3579 329.011 13.6203 329.185C13.8814 329.358 14.2061 329.456 14.6156 329.456C16.2872 329.456 17.0602 328.328 17.3024 327.904C17.5484 327.474 18.3155 325.686 18.6335 324.287C18.7896 323.6 19.0073 322.423 19.2208 321.268L19.2379 321.176C19.4553 320 19.6675 318.857 19.7994 318.329C19.8555 318.105 20.0001 317.484 20.1995 316.627C20.4587 315.513 20.8106 314.002 21.1817 312.444C21.8352 309.701 22.5503 306.806 22.9113 305.756C23.0887 305.24 23.2581 304.728 23.4178 304.244L23.4508 304.144C23.5981 303.697 23.7371 303.276 23.8656 302.901C24.0035 302.5 24.1311 302.147 24.2457 301.873C24.303 301.737 24.3587 301.615 24.4124 301.515C24.4638 301.419 24.5227 301.326 24.5906 301.258C24.8519 300.996 25.2232 301.012 25.4716 301.136C25.5995 301.2 25.7206 301.304 25.7893 301.447C25.8621 301.598 25.8662 301.775 25.7815 301.945L25.7811 301.945C25.7805 301.947 25.7794 301.949 25.7775 301.953C25.7749 301.96 25.7716 301.968 25.7675 301.978C25.7593 301.999 25.7491 302.026 25.7369 302.061C25.7124 302.129 25.6814 302.22 25.6444 302.333C25.5704 302.558 25.4742 302.864 25.3617 303.231C25.1369 303.965 24.8483 304.942 24.5454 306.008C23.9389 308.143 23.2783 310.625 22.9569 312.232C22.6644 313.695 22.4915 314.878 22.3348 315.951C22.319 316.058 22.3035 316.165 22.288 316.27C22.118 317.427 21.9547 318.475 21.6598 319.621C21.6215 319.77 21.5771 319.937 21.5287 320.12C21.2042 321.344 20.6958 323.261 20.5919 325.007C20.5321 326.012 20.6092 326.925 20.909 327.605C21.2001 328.265 21.7009 328.71 22.5401 328.811C23.3651 328.91 24.0718 328.534 24.6926 327.829C25.3173 327.12 25.8297 326.102 26.246 324.997C26.9044 323.25 27.3003 321.351 27.5361 320.219C27.5988 319.918 27.6502 319.671 27.6923 319.496C27.8806 318.712 28.2934 317.315 28.6972 315.948L28.7471 315.779C29.1696 314.349 29.5697 312.988 29.6964 312.386C29.9549 311.158 30.8637 307.261 31.3874 305.755C31.4756 305.502 31.5719 305.204 31.6742 304.888C31.8632 304.304 32.0727 303.657 32.2888 303.109C32.4561 302.684 32.6369 302.293 32.8299 302.016C32.926 301.879 33.0362 301.753 33.1635 301.669C33.2963 301.581 33.4617 301.53 33.641 301.579C33.8688 301.641 33.9614 301.842 33.9963 302.004C34.032 302.169 34.0278 302.371 34.0051 302.58C33.959 303.002 33.8263 303.544 33.6679 304.092C33.5085 304.644 33.3189 305.217 33.1539 305.706C33.1198 305.807 33.087 305.904 33.0557 305.996C32.9338 306.355 32.8362 306.643 32.7865 306.817C32.6615 307.255 32.5023 308.112 32.3393 309.001L32.3209 309.101C32.1663 309.944 32.0096 310.798 31.8819 311.277C31.8406 311.432 31.7775 311.659 31.6996 311.938C31.507 312.628 31.2241 313.643 30.9571 314.703C30.6432 315.949 30.3581 317.232 30.2719 318.094C30.1745 319.068 30.151 319.933 30.3942 320.582C30.5128 320.898 30.6934 321.158 30.9596 321.354C31.2275 321.552 31.5982 321.698 32.115 321.758C32.5428 321.809 32.9634 321.585 33.3813 321.12C33.7969 320.657 34.1701 319.995 34.4936 319.28C34.8157 318.569 35.0812 317.82 35.2873 317.194C35.3748 316.928 35.4532 316.679 35.5208 316.464C35.6086 316.184 35.6781 315.963 35.7253 315.841C35.8837 315.429 36.528 313.48 37.16 311.511C37.7936 309.537 38.4023 307.581 38.4959 307.145C38.5978 306.669 39.0262 305.421 39.5095 304.132C39.9948 302.838 40.5489 301.468 40.9114 300.743C41.2525 300.06 41.7613 298.494 42.2614 296.65C42.7636 294.797 43.2498 292.692 43.5405 290.98C43.687 290.117 43.8741 289.227 44.0641 288.331L44.0973 288.175C44.2767 287.33 44.4569 286.481 44.6085 285.64C44.9308 283.851 45.1185 282.122 44.8981 280.579C44.8763 280.426 44.8549 280.278 44.8341 280.133C44.423 277.277 44.2208 275.873 45.1742 273.584C45.5352 272.718 45.9178 271.734 46.3032 270.743C46.9426 269.098 47.5893 267.435 48.1563 266.26C48.1968 266.176 48.242 266.082 48.2922 265.977C49.3692 263.727 52.7493 256.663 62.1587 244.283C71.9737 231.368 78.1653 216.846 79.8386 208.222C81.184 201.289 82.2965 194.984 82.6844 192.7C82.6897 192.669 82.7006 192.639 82.7166 192.612C88.5702 182.682 93.0305 174.367 95.641 165.111C95.672 165.001 95.7711 164.924 95.8851 164.922C95.9991 164.92 96.1011 164.993 96.1363 165.101C96.8175 167.199 97.935 170.105 99.0797 173.081C99.2895 173.627 99.5002 174.175 99.7094 174.721C101.055 178.233 102.337 181.663 102.86 183.752C103.377 185.821 103.697 186.908 104.015 187.751C104.254 188.384 104.491 188.878 104.815 189.554C104.923 189.78 105.041 190.026 105.172 190.304L105.269 190.51C106.269 192.634 107.269 194.756 107.525 197.377C107.578 197.924 107.671 198.618 107.784 199.437C107.814 199.648 107.845 199.868 107.877 200.095C108.313 203.202 108.949 207.733 108.949 212.477C108.949 215.673 108.358 218.643 107.783 221.537L107.763 221.634C107.18 224.566 106.621 227.418 106.685 230.394C106.726 232.33 106.781 233.91 106.837 235.241C106.875 236.155 106.913 236.954 106.948 237.67C107.019 239.143 107.073 240.266 107.073 241.334C107.073 241.957 106.901 242.699 106.64 243.581C106.485 244.101 106.295 244.684 106.084 245.331C105.938 245.779 105.782 246.257 105.621 246.766C104.831 249.264 103.898 252.58 103.318 257.025C102.873 260.44 102.436 262.959 102.046 265.072C101.954 265.57 101.865 266.045 101.779 266.503C101.498 267.993 101.251 269.31 101.05 270.68C100.889 271.787 100.758 272.928 100.667 274.22C100.666 274.228 100.665 274.235 100.664 274.243C99.178 283.432 96.1838 304.597 96.0805 315.806C95.9885 325.783 96.5498 337.15 96.9289 344.829C97.0832 347.955 97.2074 350.47 97.245 352.03C97.3741 357.387 98.0843 364.806 99.8889 371.509C100.06 372.145 100.245 372.791 100.44 373.443C100.903 374.996 101.42 376.581 101.937 378.159L102.06 378.534C102.536 379.984 103.009 381.425 103.436 382.82C104.361 385.846 105.079 388.687 105.138 390.98C105.2 393.345 104.843 394.854 104.439 396.56C104.412 396.678 104.383 396.797 104.355 396.917C103.921 398.766 103.456 400.946 103.392 404.772C103.262 412.461 103.715 420.346 103.844 422.415C103.854 422.568 103.839 422.802 103.808 423.094C103.777 423.391 103.728 423.763 103.664 424.202C103.536 425.079 103.347 426.23 103.12 427.583C103.036 428.086 102.946 428.617 102.852 429.174C102.441 431.612 101.949 434.526 101.472 437.626C100.298 445.25 99.2203 453.955 99.6383 459.42C100.361 468.868 102.996 485.445 104.667 495.956C104.939 497.667 105.186 499.217 105.394 500.549C105.613 501.948 105.867 503.509 106.139 505.181C106.791 509.187 107.547 513.829 108.169 518.396C109.05 524.864 109.669 531.214 109.343 535.418C109.02 539.594 108.793 541.813 108.647 543.221L108.636 543.329C108.498 544.661 108.438 545.24 108.438 546.139C108.438 546.989 108.631 548.052 108.843 549.222L108.887 549.465C109.113 550.716 109.344 552.065 109.344 553.32C109.344 554.247 109.39 555.079 109.43 555.8C109.443 556.03 109.455 556.248 109.465 556.454C109.485 556.88 109.496 557.26 109.48 557.582C109.465 557.899 109.423 558.186 109.321 558.409C109.182 558.715 108.965 559.022 108.734 559.349C108.675 559.433 108.614 559.519 108.554 559.606C108.252 560.043 107.924 560.56 107.643 561.247C107.419 561.793 107.327 562.293 107.234 562.793C107.211 562.917 107.188 563.041 107.164 563.165C107.039 563.786 106.867 564.402 106.374 565.002C106.116 565.315 105.669 565.665 105.144 566.058C105.022 566.149 104.895 566.243 104.763 566.341C103.235 567.473 101.096 569.059 99.6668 571.44C98.6201 573.185 98.1288 574.929 97.9467 576.386C97.7638 577.849 97.8944 579.006 98.0742 579.576C98.1663 579.867 98.2547 580.047 98.3297 580.163C98.4024 580.275 98.4673 580.335 98.5269 580.385C98.5768 580.427 98.6856 580.504 98.7564 580.617C98.8355 580.743 98.8626 580.892 98.8626 581.077C98.8626 581.342 98.9886 581.795 99.241 582.181C99.4931 582.566 99.8285 582.824 100.221 582.824C100.726 582.824 101.104 582.776 101.355 582.705C101.481 582.669 101.564 582.63 101.613 582.596C101.64 582.577 101.651 582.565 101.654 582.56C101.687 582.442 101.8 582.362 101.923 582.372C102.049 582.382 102.15 582.481 102.161 582.606C102.203 583.062 102.293 583.467 102.445 583.763C102.594 584.053 102.788 584.214 103.04 584.25C103.698 584.344 104.288 584.325 104.734 584.193C105.177 584.062 105.443 583.833 105.538 583.524C105.574 583.409 105.683 583.334 105.803 583.342C105.923 583.35 106.021 583.44 106.041 583.558C106.115 584.004 106.279 584.4 106.566 584.682C106.847 584.959 107.271 585.153 107.921 585.153C108.551 585.153 108.979 584.949 109.275 584.66C109.576 584.366 109.759 583.963 109.856 583.542C109.887 583.41 110.015 583.323 110.149 583.345C110.284 583.366 110.378 583.488 110.366 583.624C110.318 584.155 110.407 584.952 110.819 585.606C111.219 586.242 111.94 586.771 113.226 586.771C114.043 586.771 114.6 586.582 114.986 586.318C115.372 586.054 115.609 585.7 115.761 585.33C115.913 584.957 115.977 584.576 116.018 584.266C116.023 584.221 116.029 584.177 116.034 584.133C116.047 584.033 116.059 583.938 116.072 583.864C116.081 583.81 116.094 583.751 116.113 583.698C116.128 583.659 116.17 583.554 116.281 583.498C116.463 583.407 116.72 583.374 116.93 583.374C117.04 583.374 117.152 583.383 117.25 583.404C117.336 583.422 117.461 583.458 117.55 583.547C117.613 583.61 117.632 583.686 117.638 583.716C117.647 583.756 117.651 583.798 117.653 583.835C117.657 583.909 117.656 584.001 117.653 584.097C117.648 584.297 117.638 584.542 117.65 584.81C117.674 585.358 117.785 585.917 118.132 586.264C118.532 586.664 119.018 587.028 119.719 587.279C120.423 587.532 121.358 587.676 122.66 587.612C125.877 587.455 127.799 585.572 128.952 583.622C129.939 581.951 130.346 580.264 130.511 579.581C130.54 579.462 130.561 579.373 130.577 579.32C130.604 579.231 130.649 579.114 130.704 578.972C131.073 578.014 131.877 575.929 130.47 573.44C130.246 573.045 130.041 572.692 129.856 572.375C129.545 571.841 129.292 571.406 129.105 571.029C128.953 570.724 128.838 570.443 128.766 570.164C128.58 569.439 128.704 568.779 129.096 567.783C129.31 567.24 129.564 566.699 129.822 566.157L129.888 566.017C130.125 565.52 130.363 565.022 130.578 564.51C131.049 563.393 131.407 562.232 131.407 560.955C131.407 559.657 131.234 558.921 131.068 558.314C131.052 558.253 131.035 558.193 131.019 558.133C130.868 557.592 130.729 557.093 130.76 556.351C130.775 555.988 130.814 555.394 130.863 554.652C131.025 552.159 131.298 547.991 131.149 545.312C131.102 544.467 130.87 543.41 130.541 542.165C130.377 541.545 130.191 540.882 129.994 540.181C129.798 539.481 129.591 538.742 129.386 537.972C128.567 534.892 127.783 531.289 127.849 527.5C127.978 519.975 130.116 502.544 133.943 490.74C137.745 479.011 137.553 469.086 136.843 460.302C136.583 457.095 135.867 453.573 135.135 449.975C134.868 448.658 134.598 447.331 134.347 446.006C133.417 441.081 132.76 436.185 133.547 432.023C134.327 427.895 135.465 424.531 136.484 421.578L136.601 421.239C137.574 418.424 138.413 415.994 138.72 413.599C139.042 411.093 139.123 407.017 139.195 403.307L139.196 403.284C139.232 401.441 139.267 399.691 139.328 398.28C139.359 397.572 139.397 396.945 139.446 396.434C139.494 395.928 139.554 395.516 139.635 395.247C139.792 394.722 140.048 393.45 140.343 391.782C141.101 387.49 142.092 380.712 142.277 377.835C142.366 376.458 142.872 373.753 143.546 370.552C144.222 367.344 145.071 363.616 145.854 360.179L145.855 360.175L146.013 359.484C146.703 356.453 147.328 353.698 147.717 351.791C147.832 351.226 147.961 350.607 148.1 349.939C149.528 343.088 152.041 331.025 151.982 318.911V312.134C151.982 312.06 152.014 311.989 152.069 311.94C152.125 311.891 152.199 311.868 152.273 311.877C152.849 311.949 153.463 311.987 154.117 311.987C154.771 311.987 155.385 311.949 155.961 311.877C156.035 311.868 156.109 311.891 156.165 311.94C156.22 311.989 156.252 312.06 156.252 312.134V318.911C156.193 331.025 158.706 343.088 160.134 349.939C160.273 350.607 160.402 351.226 160.517 351.791C160.906 353.698 161.531 356.453 162.221 359.484L162.379 360.175L162.38 360.179C163.163 363.616 164.012 367.344 164.688 370.552C165.362 373.753 165.868 376.458 165.957 377.835C166.142 380.712 167.133 387.49 167.891 391.782C168.186 393.45 168.442 394.722 168.599 395.247C168.68 395.516 168.74 395.928 168.788 396.434C168.837 396.945 168.875 397.572 168.906 398.28C168.968 399.691 169.002 401.441 169.038 403.284L169.039 403.307C169.111 407.017 169.192 411.093 169.514 413.599C169.821 415.994 170.66 418.424 171.633 421.239L171.75 421.578C172.769 424.531 173.907 427.895 174.687 432.023C175.474 436.185 174.817 441.081 173.887 446.006C173.636 447.331 173.366 448.658 173.099 449.975C172.367 453.573 171.651 457.095 171.391 460.302C170.681 469.086 170.489 479.011 174.291 490.74C178.118 502.544 180.256 519.975 180.385 527.5C180.451 531.289 179.667 534.892 178.848 537.972C178.644 538.742 178.436 539.481 178.24 540.181L178.227 540.227C178.035 540.912 177.853 541.558 177.693 542.165C177.364 543.41 177.132 544.467 177.085 545.312C176.937 547.991 177.209 552.159 177.371 554.652C177.42 555.394 177.459 555.988 177.474 556.351C177.505 557.093 177.366 557.592 177.215 558.134C177.199 558.193 177.182 558.253 177.166 558.314C177 558.921 176.827 559.657 176.827 560.955C176.827 562.232 177.185 563.393 177.656 564.51C177.871 565.022 178.109 565.52 178.346 566.017L178.412 566.157C178.67 566.699 178.924 567.24 179.138 567.783C179.53 568.779 179.654 569.439 179.468 570.164C179.396 570.443 179.281 570.724 179.129 571.029C178.942 571.406 178.689 571.841 178.378 572.375C178.193 572.692 177.988 573.045 177.764 573.44C176.357 575.929 177.161 578.014 177.53 578.972C177.585 579.114 177.63 579.231 177.657 579.32C177.673 579.373 177.694 579.462 177.723 579.581C177.888 580.264 178.295 581.951 179.282 583.622C180.435 585.572 182.357 587.455 185.574 587.612C186.876 587.676 187.811 587.532 188.515 587.279C189.216 587.028 189.702 586.664 190.102 586.264C190.449 585.917 190.56 585.358 190.584 584.81C190.594 584.577 190.588 584.36 190.583 584.176L190.581 584.097C190.579 584.001 190.577 583.909 190.581 583.835C190.583 583.798 190.587 583.756 190.596 583.716C190.602 583.686 190.621 583.61 190.684 583.547C190.773 583.458 190.898 583.422 190.984 583.404C191.082 583.383 191.194 583.374 191.304 583.374C191.514 583.374 191.771 583.407 191.953 583.498C192.064 583.554 192.106 583.659 192.121 583.698C192.14 583.751 192.153 583.81 192.162 583.864C192.181 583.97 192.197 584.119 192.216 584.266C192.257 584.576 192.321 584.957 192.473 585.33C192.625 585.7 192.862 586.054 193.248 586.318C193.634 586.582 194.191 586.771 195.008 586.771C196.294 586.771 197.015 586.242 197.415 585.606C197.827 584.952 197.916 584.155 197.868 583.624C197.856 583.488 197.95 583.366 198.085 583.345C198.219 583.323 198.347 583.41 198.378 583.542C198.475 583.963 198.658 584.366 198.959 584.66C199.255 584.949 199.683 585.153 200.313 585.153C200.952 585.153 201.375 584.957 201.658 584.677C201.947 584.392 202.116 583.995 202.194 583.555C202.214 583.438 202.313 583.349 202.432 583.342C202.552 583.335 202.661 583.41 202.696 583.524C202.791 583.833 203.057 584.062 203.5 584.193C203.946 584.325 204.536 584.344 205.194 584.25C205.434 584.216 205.627 584.054 205.78 583.756C205.934 583.456 206.028 583.048 206.073 582.604C206.086 582.479 206.186 582.381 206.312 582.372C206.435 582.363 206.547 582.442 206.58 582.56C206.583 582.565 206.594 582.577 206.621 582.596C206.67 582.63 206.753 582.669 206.879 582.705C207.13 582.776 207.508 582.824 208.013 582.824C208.406 582.824 208.741 582.566 208.993 582.181C209.245 581.795 209.371 581.342 209.371 581.077C209.371 580.892 209.398 580.743 209.478 580.617C209.538 580.521 209.626 580.45 209.682 580.405C209.691 580.398 209.7 580.391 209.707 580.385C209.767 580.335 209.832 580.275 209.904 580.163C209.979 580.047 210.068 579.867 210.16 579.576C210.34 579.006 210.47 577.849 210.287 576.386C210.105 574.929 209.614 573.185 208.567 571.44C207.138 569.059 204.999 567.473 203.471 566.341C203.339 566.243 203.212 566.149 203.09 566.058C202.565 565.665 202.118 565.315 201.86 565.002C201.367 564.402 201.195 563.786 201.07 563.165C201.046 563.041 201.023 562.917 201 562.793C200.907 562.293 200.815 561.793 200.591 561.247C200.31 560.56 199.982 560.043 199.68 559.606C199.62 559.519 199.559 559.433 199.5 559.349C199.269 559.022 199.052 558.714 198.913 558.409C198.811 558.186 198.769 557.899 198.754 557.582C198.738 557.26 198.749 556.88 198.769 556.454C198.779 556.248 198.791 556.029 198.804 555.8C198.844 555.079 198.89 554.247 198.89 553.32C198.89 552.065 199.121 550.716 199.347 549.465L199.391 549.221C199.603 548.052 199.796 546.989 199.796 546.139C199.796 545.24 199.736 544.661 199.598 543.329L199.587 543.221C199.441 541.813 199.214 539.594 198.891 535.418C198.565 531.214 199.184 524.864 200.065 518.396C200.687 513.829 201.443 509.187 202.095 505.182C202.367 503.509 202.621 501.948 202.84 500.549C203.048 499.217 203.295 497.666 203.567 495.955C205.238 485.444 207.873 468.868 208.596 459.42C209.014 453.955 207.936 445.25 206.762 437.626C206.285 434.527 205.793 431.614 205.382 429.176C205.288 428.619 205.198 428.087 205.114 427.583C204.887 426.23 204.698 425.079 204.57 424.202C204.506 423.763 204.457 423.391 204.426 423.094C204.395 422.802 204.38 422.568 204.39 422.415C204.519 420.346 204.972 412.461 204.842 404.772C204.778 400.946 204.313 398.766 203.879 396.917C203.851 396.797 203.822 396.678 203.795 396.56C203.391 394.854 203.034 393.345 203.096 390.98C203.155 388.687 203.873 385.846 204.798 382.82C205.225 381.425 205.698 379.985 206.173 378.535L206.297 378.159C206.814 376.581 207.331 374.996 207.794 373.443C207.989 372.791 208.174 372.145 208.345 371.509C210.15 364.806 210.86 357.387 210.989 352.03C211.027 350.47 211.151 347.955 211.305 344.829C211.684 337.15 212.246 325.783 212.154 315.806C212.05 304.597 209.056 283.432 207.57 274.243C207.569 274.235 207.568 274.228 207.567 274.22C207.476 272.928 207.345 271.787 207.184 270.68C206.983 269.31 206.736 267.993 206.455 266.503C206.369 266.045 206.28 265.57 206.188 265.072C205.798 262.959 205.361 260.44 204.916 257.025C204.336 252.58 203.403 249.264 202.613 246.766C202.452 246.257 202.296 245.778 202.15 245.33C201.939 244.684 201.749 244.101 201.594 243.581C201.333 242.699 201.161 241.957 201.161 241.334C201.161 240.267 201.215 239.143 201.286 237.67C201.321 236.954 201.359 236.156 201.397 235.241C201.453 233.91 201.508 232.33 201.549 230.394C201.613 227.418 201.054 224.566 200.471 221.634L200.451 221.537C199.876 218.643 199.285 215.673 199.285 212.477C199.285 207.733 199.921 203.202 200.357 200.095C200.389 199.868 200.42 199.648 200.45 199.437C200.564 198.618 200.656 197.924 200.709 197.377C200.965 194.756 201.965 192.634 202.965 190.51L202.972 190.495L203.062 190.304C203.193 190.026 203.311 189.779 203.419 189.554C203.743 188.878 203.98 188.384 204.219 187.751C204.537 186.908 204.857 185.821 205.374 183.752C205.897 181.663 207.179 178.233 208.525 174.721C208.734 174.175 208.945 173.627 209.154 173.081C210.299 170.105 211.417 167.199 212.098 165.101C212.133 164.993 212.235 164.92 212.349 164.922C212.463 164.924 212.562 165.001 212.593 165.111C215.204 174.367 219.664 182.682 225.517 192.612C225.527 192.628 225.534 192.645 225.54 192.662C225.544 192.674 225.547 192.687 225.55 192.7C225.938 194.984 227.05 201.289 228.395 208.222C230.069 216.846 236.26 231.368 246.075 244.283C255.485 256.663 258.865 263.727 259.942 265.977C259.992 266.082 260.037 266.176 260.078 266.26C260.645 267.435 261.291 269.098 261.931 270.743C262.316 271.734 262.699 272.718 263.06 273.584C264.013 275.873 263.811 277.277 263.4 280.133C263.379 280.278 263.358 280.426 263.336 280.579C263.116 282.122 263.303 283.851 263.626 285.64C263.777 286.481 263.957 287.329 264.137 288.174L264.17 288.331C264.36 289.227 264.547 290.117 264.694 290.98C264.984 292.692 265.47 294.797 265.973 296.65C266.473 298.494 266.982 300.06 267.323 300.743C267.685 301.468 268.239 302.838 268.725 304.132C269.208 305.421 269.636 306.669 269.738 307.145C269.832 307.581 270.44 309.537 271.074 311.511C271.706 313.48 272.35 315.429 272.509 315.841C272.556 315.963 272.625 316.184 272.713 316.463C272.781 316.678 272.859 316.928 272.947 317.194C273.153 317.82 273.418 318.569 273.74 319.28C274.064 319.995 274.437 320.657 274.853 321.12C275.271 321.585 275.691 321.809 276.119 321.758C276.636 321.698 277.007 321.552 277.274 321.354C277.541 321.158 277.721 320.898 277.84 320.582C278.083 319.933 278.06 319.068 277.962 318.094C277.876 317.232 277.591 315.949 277.277 314.703C277.01 313.643 276.727 312.628 276.534 311.938C276.457 311.658 276.393 311.432 276.352 311.277C276.224 310.798 276.067 309.942 275.913 309.098L275.895 309.001C275.732 308.112 275.573 307.255 275.447 306.817C275.398 306.643 275.3 306.356 275.179 305.997C275.147 305.904 275.114 305.807 275.08 305.706C274.915 305.217 274.726 304.644 274.566 304.092C274.408 303.544 274.275 303.002 274.229 302.58C274.206 302.371 274.202 302.169 274.238 302.004C274.273 301.842 274.365 301.641 274.593 301.579C274.772 301.53 274.938 301.581 275.071 301.669C275.198 301.753 275.308 301.879 275.404 302.016C275.597 302.293 275.778 302.684 275.945 303.109C276.161 303.657 276.371 304.304 276.56 304.889C276.662 305.204 276.758 305.502 276.847 305.755C277.37 307.261 278.279 311.158 278.538 312.386C278.664 312.988 279.064 314.349 279.487 315.779L279.537 315.948C279.941 317.315 280.353 318.712 280.542 319.496C280.584 319.671 280.635 319.918 280.698 320.219C280.934 321.351 281.33 323.25 281.988 324.997C282.404 326.102 282.917 327.12 283.541 327.829C284.162 328.534 284.869 328.91 285.694 328.811C286.533 328.71 287.034 328.265 287.325 327.605C287.625 326.925 287.702 326.012 287.642 325.007C287.538 323.261 287.03 321.344 286.705 320.12C286.657 319.937 286.613 319.77 286.574 319.621C286.279 318.475 286.116 317.427 285.946 316.27C285.931 316.165 285.915 316.058 285.899 315.95C285.742 314.877 285.57 313.694 285.277 312.232C284.956 310.625 284.295 308.143 283.689 306.008C283.386 304.942 283.097 303.965 282.872 303.231C282.76 302.864 282.664 302.558 282.59 302.333C282.553 302.22 282.522 302.129 282.497 302.061C282.485 302.026 282.475 301.999 282.467 301.978C282.462 301.968 282.459 301.96 282.457 301.953C282.454 301.947 282.453 301.945 282.453 301.945C282.368 301.775 282.372 301.598 282.445 301.447C282.513 301.304 282.635 301.2 282.762 301.136C283.011 301.012 283.382 300.996 283.643 301.258C283.711 301.326 283.77 301.419 283.822 301.515C283.849 301.566 283.877 301.623 283.906 301.685C283.933 301.744 283.96 301.807 283.988 301.873C284.103 302.147 284.231 302.5 284.368 302.901C284.453 303.148 284.542 303.415 284.635 303.696C284.694 303.873 284.754 304.057 284.816 304.244C284.976 304.728 285.145 305.24 285.323 305.756C285.684 306.806 286.399 309.701 287.052 312.444C287.424 314.003 287.776 315.516 288.035 316.629C288.234 317.485 288.379 318.105 288.435 318.329C288.567 318.857 288.779 320 288.996 321.176C289.215 322.359 289.44 323.582 289.601 324.287C289.918 325.686 290.686 327.474 290.932 327.904C291.174 328.328 291.947 329.456 293.618 329.456C294.028 329.456 294.353 329.358 294.614 329.185C294.876 329.011 295.091 328.749 295.262 328.397C295.607 327.683 295.754 326.632 295.754 325.315C295.754 324.016 295.515 322.532 295.225 321.096C295.097 320.464 294.957 319.834 294.825 319.236C294.66 318.493 294.506 317.799 294.399 317.209C294.217 316.208 294.133 315.445 294.051 314.694L294.032 314.522C293.944 313.716 293.848 312.9 293.623 311.779C293.399 310.657 292.803 308.385 292.22 306.215C292.041 305.547 291.862 304.888 291.697 304.277C291.327 302.91 291.021 301.779 290.908 301.306C290.751 300.648 290.499 299.984 290.268 299.458C290.035 298.928 289.832 298.556 289.78 298.478C289.677 298.324 289.715 298.148 289.753 298.047C289.797 297.932 289.874 297.82 289.97 297.736C290.064 297.654 290.207 297.572 290.38 297.586C290.566 297.6 290.709 297.72 290.802 297.883C290.944 298.131 291.129 298.571 291.419 299.353C291.711 300.14 292.116 301.291 292.698 302.973C293.016 303.891 293.362 304.96 293.702 306.046C294.252 307.801 294.785 309.589 295.164 310.861C295.416 311.708 295.6 312.326 295.676 312.552C295.772 312.84 295.91 313.513 296.054 314.268C296.191 314.993 296.337 315.815 296.458 316.497C296.581 317.187 296.677 317.718 296.716 317.876C296.721 317.897 296.727 317.922 296.735 317.951C296.823 318.317 297.08 319.385 297.645 320.384C298.257 321.467 299.187 322.398 300.595 322.339C301.3 322.31 301.758 322.04 302.065 321.646C302.382 321.241 302.556 320.682 302.638 320.057C302.763 319.104 302.668 318.084 302.598 317.344C302.576 317.103 302.556 316.892 302.547 316.723C302.484 315.451 301.842 311.85 301.322 309.124C300.806 306.414 299.773 302.085 299.19 299.756C299.124 299.489 299.045 299.171 298.957 298.816C298.274 296.062 297.019 291.003 296.222 288.782C295.501 286.774 294.073 283.517 293.447 282.137C293.411 282.057 293.418 281.964 293.466 281.89C293.513 281.816 293.595 281.772 293.683 281.772C294.19 281.772 294.943 282 295.648 282.284C296.362 282.571 297.076 282.935 297.518 283.241C297.919 283.518 298.213 283.879 298.527 284.264C298.572 284.319 298.617 284.374 298.663 284.429C299.036 284.883 299.49 285.399 300.244 285.964C300.983 286.519 302.028 286.958 303.136 287.162C304.244 287.367 305.39 287.331 306.336 286.965C307.237 286.616 307.621 285.93 307.701 285.236C307.783 284.521 307.538 283.828 307.217 283.507C306.841 283.132 306.384 282.769 305.938 282.42L305.838 282.342C305.434 282.027 305.04 281.719 304.758 281.437C304.428 281.106 304.315 280.822 304.213 280.542L304.198 280.501C304.107 280.25 304.016 279.999 303.764 279.662C303.2 278.911 302.055 277.827 301.158 277.123C300.725 276.782 300.033 276.388 299.311 275.998C299.1 275.885 298.886 275.771 298.677 275.66C298.182 275.398 297.713 275.149 297.367 274.941C296.852 274.632 296.411 274.206 295.999 273.794C295.958 273.753 295.917 273.712 295.877 273.671C295.504 273.297 295.151 272.943 294.762 272.665C293.872 272.029 291.624 270.68 289.313 269.717L289.313 269.717C288.639 269.434 287.187 268.841 286.686 268.691C286.357 268.592 285.347 268.266 284.343 267.867C283.842 267.667 283.337 267.447 282.918 267.225C282.708 267.115 282.516 267.002 282.356 266.888C282.198 266.777 282.056 266.657 281.959 266.528C281.926 266.483 281.888 266.419 281.847 266.341C281.823 266.295 281.798 266.245 281.772 266.192C281.7 266.041 281.611 265.845 281.51 265.611C281.307 265.141 281.048 264.506 280.747 263.748C280.146 262.23 279.376 260.208 278.559 257.995C276.925 253.57 275.095 248.372 274.026 244.904C273.046 241.728 272.203 237.339 271.229 232.261C271.136 231.776 271.041 231.285 270.946 230.788C269.846 225.078 268.553 218.585 266.712 211.964C263.336 199.821 260.235 194.098 257.549 189.141C257.307 188.696 257.069 188.256 256.834 187.819C256.192 186.622 255.634 185.64 255.142 184.775C253.464 181.825 252.556 180.228 251.698 176.038C251.152 173.372 249.992 169.812 248.803 166.373C248.426 165.283 248.045 164.204 247.681 163.171C246.9 160.956 246.193 158.952 245.751 157.492C245.242 155.811 243.981 153.212 242.6 150.629C241.223 148.052 239.737 145.514 238.79 143.965C238.768 143.929 238.756 143.889 238.753 143.847C238.645 142.246 238.429 137.91 238.429 133.348C238.429 127.656 237.908 116.73 232.392 108.649C229.81 104.866 227.701 102.639 225.441 101.032C223.176 99.4212 220.747 98.4228 217.492 97.1121C217.016 96.9204 216.522 96.7221 216.01 96.5145C212.283 95.0045 209.765 94.5555 207.26 94.1688C207.073 94.14 206.886 94.1115 206.699 94.0829C204.366 93.7271 201.96 93.3601 198.553 92.1843C191.232 89.6575 185.069 86.869 181.491 84.7875C179.711 83.7519 177.984 82.6934 176.684 81.6958C176.034 81.1972 175.483 80.7073 175.083 80.2367C174.687 79.7712 174.415 79.2956 174.376 78.8269C174.34 78.4011 174.324 77.0357 174.319 75.2476C174.31 71.6371 174.346 66.2356 174.375 63.0808C174.376 63.0235 174.395 62.9681 174.43 62.9231C174.707 62.5715 174.946 62.0406 175.149 61.3949C175.352 60.7536 175.513 60.0195 175.646 59.2769C175.779 58.5349 175.882 57.7897 175.968 57.1266C175.991 56.9544 176.012 56.7873 176.033 56.627C176.091 56.1735 176.142 55.7747 176.19 55.4723C176.299 54.7894 176.35 54.1541 176.388 53.6778C176.394 53.5985 176.4 53.5236 176.406 53.4536C176.425 53.2222 176.445 53.0139 176.479 52.8949C176.487 52.8649 176.503 52.8157 176.534 52.7698C176.565 52.7257 176.659 52.6194 176.817 52.647C176.934 52.6675 176.996 52.7539 177.012 52.7766C177.037 52.8127 177.057 52.8529 177.072 52.8879C177.08 52.9082 177.089 52.9287 177.098 52.9493C177.191 53.169 177.289 53.4006 177.507 53.613C177.741 53.84 178.137 54.0647 178.871 54.1565C179.14 54.19 179.427 54.0569 179.749 53.7207C180.069 53.387 180.381 52.8948 180.69 52.3179C180.971 51.7914 181.241 51.2106 181.507 50.6389L181.58 50.4826C181.867 49.866 182.151 49.2643 182.433 48.7828C182.961 47.8828 183.423 46.3809 183.77 44.7043C184.115 43.0349 184.34 41.221 184.404 39.7152C184.433 39.0301 184.384 38.4536 184.278 37.97C184.103 37.1683 183.769 36.6208 183.367 36.251C182.962 35.88 182.473 35.6738 181.963 35.5812C181.517 35.5 181.092 35.722 180.715 36.1023C180.342 36.4794 180.06 36.9701 179.919 37.304C179.869 37.4214 179.741 37.485 179.617 37.4538C179.494 37.4227 179.411 37.306 179.423 37.179C179.627 34.9746 179.853 31.4141 179.866 27.9028C179.88 24.3795 179.679 20.9461 179.046 18.9716C178.248 16.4822 176.016 11.8615 171.978 7.86717C167.946 3.87805 162.117 0.517578 154.11 0.517578C146.103 0.517578 140.278 3.87803 136.249 7.86709ZM191.635 583.878C191.636 583.879 191.636 583.879 191.636 583.88C191.633 583.873 191.633 583.872 191.635 583.878Z" fill="#E0E0E0" fill-opacity="0.3"/>
<path d="M129.337 570.914C129.631 571.508 130.087 572.237 130.695 573.313C132.378 576.289 131.019 578.748 130.825 579.395C130.631 580.042 129.337 587.546 122.673 587.871C120.02 588 118.79 587.288 117.949 586.447C117.108 585.606 117.496 583.859 117.367 583.73C117.238 583.6 116.655 583.6 116.397 583.73C116.138 583.859 116.655 587.03 113.226 587.03C110.483 587.03 110.005 584.743 110.108 583.6C109.9 584.505 109.306 585.412 107.921 585.412C106.51 585.412 105.945 584.56 105.786 583.6C105.527 584.441 104.362 584.7 103.004 584.506C102.282 584.403 101.989 583.569 101.904 582.63C101.839 582.889 101.257 583.083 100.221 583.083C99.1862 583.083 98.6039 581.724 98.6039 581.077C98.6039 580.43 98.2157 580.883 97.8275 579.654C97.4393 578.424 97.3099 574.866 99.445 571.307C101.028 568.668 103.465 566.99 104.989 565.851C105.52 565.453 105.94 565.121 106.174 564.837C107.08 563.737 106.821 562.573 107.403 561.149C107.985 559.726 108.762 559.014 109.085 558.302C109.409 557.591 109.085 555.779 109.085 553.32C109.085 550.862 108.18 548.015 108.18 546.139C108.18 544.262 108.438 543.745 109.085 535.398C109.732 527.052 106.627 510.1 105.139 500.589C103.651 491.078 100.221 470.439 99.3803 459.44C98.5392 448.441 103.715 424.501 103.586 422.431C103.456 420.36 103.004 412.467 103.133 404.768C103.262 397.068 105.009 395.968 104.88 390.986C104.763 386.478 102.049 379.744 100.192 373.517C99.9968 372.863 99.8112 372.215 99.6391 371.576C97.8275 364.847 97.1157 357.407 96.9863 352.037C96.8569 346.666 95.6923 329.844 95.8217 315.804C95.9253 304.572 98.9229 283.389 100.409 274.202C100.5 272.903 100.632 271.756 100.794 270.643C101.32 267.045 102.172 263.811 103.062 256.991C104.226 248.062 106.814 243.663 106.814 241.334C106.814 239.755 106.695 238.057 106.578 235.252C106.523 233.919 106.468 232.337 106.426 230.399C106.297 224.382 108.69 218.882 108.69 212.477C108.69 207.407 107.961 202.58 107.528 199.472C107.414 198.654 107.321 197.955 107.267 197.402C107.016 194.826 106.032 192.738 105.028 190.605L104.938 190.414C103.903 188.214 103.644 187.956 102.609 183.815C101.573 179.674 97.5077 170.163 95.8902 165.181C93.2699 174.471 88.7944 182.811 82.9396 192.743C82.5514 195.029 81.4385 201.336 80.0928 208.272C78.4105 216.941 72.1993 231.499 62.3648 244.439C52.5303 257.379 49.2952 264.496 48.3894 266.373C47.4836 268.249 46.3837 271.355 45.4132 273.684C44.4427 276.013 44.7015 277.372 45.1544 280.542C45.6073 283.713 44.378 287.595 43.7957 291.024C43.5032 292.746 43.015 294.859 42.5113 296.717C42.0119 298.559 41.4972 300.15 41.1429 300.858C40.4312 302.282 38.9431 306.293 38.749 307.199C38.5549 308.105 36.2904 315.092 35.9669 315.934C35.6434 316.775 34.2847 322.274 32.0848 322.015C29.885 321.757 29.8203 320.01 30.0144 318.069C30.1028 317.185 30.3925 315.885 30.7062 314.64C31.0814 313.15 31.491 311.739 31.6319 311.21C31.8907 310.24 32.2789 307.652 32.5377 306.746C32.7965 305.84 34.2847 302.023 33.573 301.829C32.8612 301.635 32.1495 304.352 31.6319 305.84C31.1143 307.328 30.2085 311.21 29.9497 312.44C29.6909 313.669 28.3322 317.939 27.944 319.557C27.5558 321.174 26.2618 329.521 22.5091 329.068C18.7565 328.615 20.8269 321.821 21.4092 319.557C21.9915 317.292 22.0562 315.416 22.7032 312.181C23.3502 308.946 25.356 302.217 25.5501 301.829C25.7442 301.441 25.0972 301.117 24.7737 301.441C24.4502 301.764 23.8678 303.77 23.1561 305.84C22.4444 307.911 20.3093 317.357 20.0505 318.392C19.7917 319.427 19.2094 322.921 18.8859 324.345C18.5624 325.768 17.786 327.58 17.5272 328.033C17.2684 328.485 16.4273 329.715 14.6156 329.715C12.804 329.715 12.2217 327.968 12.2217 325.315C12.2217 322.662 13.1922 319.298 13.5804 317.163C13.9686 315.028 13.9039 313.993 14.3568 311.728C14.8098 309.463 16.7508 302.605 17.0743 301.246C17.3978 299.888 18.1095 298.529 18.2389 298.335C18.3683 298.141 17.9154 297.559 17.6566 298.011C17.3978 298.464 16.9449 299.694 15.7803 303.058C15.4639 303.972 15.1189 305.039 14.779 306.123C13.8675 309.031 12.9925 312.068 12.804 312.634C12.7147 312.902 12.5793 313.554 12.4348 314.316C12.1604 315.762 11.8536 317.6 11.7688 317.939C11.6394 318.457 10.7336 322.727 7.62797 322.598C4.52234 322.468 5.36345 318.004 5.42815 316.71C5.49285 315.416 6.13986 311.793 6.65746 309.075C7.17507 306.358 8.21028 302.023 8.79258 299.694C9.37489 297.364 10.863 291.218 11.7688 288.695C12.4935 286.676 13.9255 283.411 14.5509 282.03C13.6451 282.03 11.7041 282.871 10.863 283.454C10.0219 284.036 9.69839 285.007 8.14558 286.171C6.59276 287.336 3.81062 287.983 1.8049 287.206C-0.200823 286.43 0.0579797 284.101 0.834388 283.324C1.6108 282.548 2.71071 281.836 3.29302 281.254C3.87532 280.672 3.68122 280.283 4.26353 279.507C4.84583 278.731 6.01044 277.631 6.91625 276.919C7.82206 276.207 9.76309 275.301 10.7336 274.719C11.7041 274.137 12.4158 273.102 13.3216 272.455C14.2274 271.808 16.492 270.449 18.8212 269.478C19.4898 269.198 20.9563 268.598 21.4739 268.443C22.1209 268.249 25.4854 267.149 26.0677 266.373C26.65 265.596 31.826 251.75 33.9612 244.827C36.0963 237.904 37.5844 225.158 41.2723 211.895C44.9603 198.631 48.3247 193.002 51.1715 187.697C54.0184 182.391 55.183 181.356 56.2829 175.986C57.3828 170.616 60.9414 161.687 62.2354 157.417C63.2706 154.001 67.3252 146.935 69.223 143.83C69.3309 142.234 69.5465 137.903 69.5465 133.348C69.5465 127.654 70.0642 116.655 75.6284 108.503C80.813 100.907 84.1439 99.49 90.6457 96.872C91.1218 96.6803 91.615 96.4821 92.1271 96.2746C99.6324 93.2337 102.285 94.463 109.596 91.9397C116.907 89.4164 123.054 86.6342 126.613 84.5638C130.171 82.4934 133.471 80.3583 133.6 78.8054C133.635 78.3929 133.651 77.0413 133.656 75.2469C133.666 71.638 133.629 66.2378 133.6 63.0832C132.313 61.2069 132.047 57.1307 131.789 55.5132C131.53 53.8957 131.595 52.537 131.4 52.9899C131.206 53.4428 130.948 54.2192 129.395 54.4133C127.842 54.6074 126.677 50.79 125.577 48.9137C124.477 47.0374 123.701 42.7672 123.572 39.7262C123.542 39.0231 123.591 38.4238 123.703 37.9146C124.074 36.2216 125.13 35.5255 126.224 35.3266C127.363 35.1195 128.252 36.4912 128.554 37.2029C128.144 32.7817 127.648 22.9299 128.942 18.8926C130.559 13.8459 137.935 0.258789 154.11 0.258789C170.286 0.258789 177.675 13.8459 179.292 18.8926C180.586 22.9299 180.09 32.7817 179.681 37.2029C179.982 36.4912 180.871 35.1195 182.01 35.3266C183.104 35.5255 184.16 36.2216 184.531 37.9146C184.643 38.4238 184.692 39.0231 184.663 39.7262C184.533 42.7672 183.757 47.0374 182.657 48.9137C181.557 50.79 180.392 54.6074 178.839 54.4133C177.287 54.2192 177.028 53.4428 176.834 52.9899C176.64 52.537 176.704 53.8957 176.446 55.5132C176.187 57.1307 175.857 61.5304 174.634 63.0832C174.605 66.2378 174.569 71.638 174.578 75.2469C174.583 77.0413 174.6 78.3929 174.634 78.8054C174.763 80.3583 178.063 82.4934 181.622 84.5638C185.18 86.6342 191.327 89.4164 198.638 91.9397C205.949 94.463 208.602 93.2337 216.107 96.2746C216.619 96.4821 217.112 96.6803 217.588 96.872C224.09 99.49 227.421 100.907 232.606 108.503C238.17 116.655 238.688 127.654 238.688 133.348C238.688 137.903 238.903 142.234 239.011 143.83C240.909 146.935 244.964 154.001 245.999 157.417C247.293 161.687 250.851 170.616 251.951 175.986C253.051 181.356 254.216 182.391 257.063 187.697C259.909 193.002 263.274 198.631 266.962 211.895C270.65 225.158 272.138 237.904 274.273 244.827C276.408 251.75 281.584 265.596 282.166 266.373C282.749 267.149 286.113 268.249 286.76 268.443C287.278 268.598 288.744 269.198 289.413 269.478C291.742 270.449 294.007 271.808 294.913 272.455C295.818 273.102 296.53 274.137 297.501 274.719C298.471 275.301 300.412 276.207 301.318 276.919C302.224 277.631 303.388 278.731 303.971 279.507C304.553 280.283 304.359 280.672 304.941 281.254C305.523 281.836 306.623 282.548 307.4 283.324C308.176 284.101 308.435 286.43 306.429 287.206C304.424 287.983 301.641 287.336 300.089 286.171C298.536 285.007 298.212 284.036 297.371 283.454C296.53 282.871 294.589 282.03 293.683 282.03C294.309 283.411 295.741 286.676 296.465 288.695C297.371 291.218 298.859 297.364 299.442 299.694C300.024 302.023 301.059 306.358 301.577 309.075C302.094 311.793 302.741 315.416 302.806 316.71C302.871 318.004 303.712 322.468 300.606 322.598C297.501 322.727 296.595 318.457 296.465 317.939C296.381 317.6 296.074 315.762 295.799 314.316C295.655 313.554 295.519 312.902 295.43 312.634C295.242 312.068 294.367 309.031 293.455 306.123C293.115 305.039 292.77 303.972 292.454 303.058C291.289 299.694 290.836 298.464 290.578 298.011C290.319 297.559 289.866 298.141 289.995 298.335C290.125 298.529 290.836 299.888 291.16 301.246C291.483 302.605 293.424 309.463 293.877 311.728C294.33 313.993 294.266 315.028 294.654 317.163C295.042 319.298 296.012 322.662 296.012 325.315C296.012 327.968 295.43 329.715 293.618 329.715C291.807 329.715 290.966 328.485 290.707 328.033C290.448 327.58 289.672 325.768 289.348 324.345C289.025 322.921 288.442 319.427 288.184 318.392C287.925 317.357 285.79 307.911 285.078 305.84C284.366 303.77 283.784 301.764 283.46 301.441C283.137 301.117 282.49 301.441 282.684 301.829C282.878 302.217 284.884 308.946 285.531 312.181C286.178 315.416 286.243 317.292 286.825 319.557C287.407 321.821 289.478 328.615 285.725 329.068C281.972 329.521 280.678 321.174 280.29 319.557C279.902 317.939 278.543 313.669 278.284 312.44C278.026 311.21 277.12 307.328 276.602 305.84C276.085 304.352 275.373 301.635 274.661 301.829C273.949 302.023 275.438 305.84 275.696 306.746C275.955 307.652 276.343 310.24 276.602 311.21C276.743 311.739 277.153 313.15 277.528 314.64C277.842 315.885 278.131 317.185 278.22 318.069C278.414 320.01 278.349 321.757 276.149 322.015C273.949 322.274 272.591 316.775 272.267 315.934C271.944 315.092 269.679 308.105 269.485 307.199C269.291 306.293 267.803 302.282 267.091 300.858C266.737 300.15 266.222 298.559 265.723 296.717C265.219 294.859 264.731 292.746 264.438 291.024C263.856 287.595 262.627 283.713 263.08 280.542C263.533 277.372 263.791 276.013 262.821 273.684C261.85 271.355 260.751 268.249 259.845 266.373C258.939 264.496 255.704 257.379 245.869 244.439C236.035 231.499 229.824 216.941 228.141 208.272C226.796 201.336 225.683 195.029 225.295 192.743C219.44 182.811 214.964 174.471 212.344 165.181C210.726 170.163 206.661 179.674 205.626 183.815C204.59 187.956 204.332 188.214 203.296 190.414L203.206 190.605C202.202 192.738 201.218 194.826 200.967 197.402C200.913 197.955 200.82 198.654 200.706 199.472C200.273 202.58 199.544 207.407 199.544 212.477C199.544 218.882 201.938 224.382 201.808 230.399C201.767 232.337 201.711 233.919 201.656 235.252C201.539 238.057 201.42 239.755 201.42 241.334C201.42 243.663 204.008 248.062 205.173 256.991C206.062 263.811 206.914 267.045 207.44 270.643C207.602 271.756 207.734 272.903 207.825 274.202C209.311 283.389 212.309 304.572 212.412 315.804C212.542 329.844 211.377 346.666 211.248 352.037C211.118 357.407 210.407 364.847 208.595 371.576C208.423 372.215 208.237 372.863 208.042 373.517C206.185 379.744 203.471 386.478 203.354 390.986C203.225 395.968 204.972 397.068 205.101 404.768C205.231 412.467 204.778 420.36 204.648 422.431C204.519 424.501 209.695 448.441 208.854 459.44C208.013 470.439 204.584 491.078 203.096 500.589C201.607 510.1 198.502 527.052 199.149 535.398C199.796 543.745 200.055 544.262 200.055 546.139C200.055 548.015 199.149 550.862 199.149 553.32C199.149 555.779 198.825 557.591 199.149 558.302C199.472 559.014 200.249 559.726 200.831 561.149C201.413 562.573 201.154 563.737 202.06 564.837C202.294 565.121 202.714 565.453 203.245 565.851C204.769 566.99 207.206 568.668 208.789 571.307C210.924 574.866 210.795 578.424 210.407 579.654C210.018 580.883 209.63 580.43 209.63 581.077C209.63 581.724 209.048 583.083 208.013 583.083C206.978 583.083 206.395 582.889 206.331 582.63C206.238 583.548 205.935 584.405 205.231 584.506C203.872 584.7 202.707 584.441 202.449 583.6C202.281 584.548 201.706 585.412 200.313 585.412C198.928 585.412 198.335 584.505 198.126 583.6C198.229 584.743 197.751 587.03 195.008 587.03C191.579 587.03 192.096 583.859 191.838 583.73C191.579 583.6 190.996 583.6 190.867 583.73C190.738 583.859 191.126 585.606 190.285 586.447C189.444 587.288 188.214 588 185.562 587.871C178.897 587.546 177.603 580.042 177.409 579.395C177.215 578.748 175.857 576.289 177.539 573.313C178.147 572.237 178.603 571.508 178.897 570.914M129.337 570.914C129.19 570.618 129.083 570.355 129.017 570.1M129.337 570.914C129.219 570.649 129.113 570.377 129.017 570.1M129.017 570.1C128.851 569.453 128.952 568.856 129.337 567.878C130.178 565.743 131.666 563.608 131.666 560.955C131.666 558.302 130.954 557.914 131.019 556.361C131.084 554.809 131.601 548.791 131.407 545.298C131.213 541.804 127.978 535.01 128.107 527.505C128.237 520 130.372 502.595 134.189 490.82C138.007 479.044 137.812 469.08 137.101 460.281C136.389 451.482 132.248 440.288 133.801 432.071C135.354 423.854 138.33 418.678 138.977 413.632C139.624 408.585 139.301 397.262 139.883 395.321C140.046 394.779 140.304 393.491 140.598 391.827C141.356 387.534 142.349 380.743 142.536 377.852C142.711 375.141 144.54 367.111 146.108 360.232L146.265 359.542C146.955 356.512 147.58 353.754 147.971 351.842C149.265 345.502 152.305 332.238 152.241 318.91V312.134C152.828 312.207 153.453 312.246 154.117 312.246C154.781 312.246 155.406 312.207 155.993 312.134V318.91C155.929 332.238 158.97 345.502 160.264 351.842C160.654 353.754 161.279 356.512 161.969 359.542L162.126 360.232C163.694 367.111 165.524 375.141 165.698 377.852C165.885 380.743 166.878 387.534 167.636 391.827C167.93 393.491 168.189 394.779 168.351 395.321C168.934 397.262 168.61 408.585 169.257 413.632C169.904 418.678 172.88 423.854 174.433 432.071C175.986 440.288 171.845 451.482 171.133 460.281C170.422 469.08 170.228 479.044 174.045 490.82C177.862 502.595 179.997 520 180.127 527.505C180.256 535.01 177.021 541.804 176.827 545.298C176.633 548.791 177.151 554.809 177.215 556.361C177.28 557.914 176.568 558.302 176.568 560.955C176.568 563.608 178.056 565.743 178.897 567.878C179.283 568.856 179.383 569.453 179.217 570.1M178.897 570.914C179.045 570.618 179.152 570.355 179.217 570.1M178.897 570.914C179.015 570.649 179.121 570.377 179.217 570.1" stroke="black" stroke-width="0.517606" stroke-linecap="round" stroke-linejoin="round"/>
</svg>
